<svg xmlns="http://www.w3.org/2000/svg" width="560" height="453" viewBox="0 0 560 453"><g transform="translate(-1046 -279)"><rect width="12" height="208" rx="6" transform="translate(1046 400)" fill="#007f85"/><rect width="12" height="208" rx="6" transform="translate(1167 400)" fill="#007f85"/><rect width="13" height="132" rx="6.5" transform="translate(1098 438)" fill="#007f85"/><rect width="11" height="154" rx="5.5" transform="translate(1230 426)" fill="#007f85"/><rect width="13" height="291" rx="6.5" transform="translate(1072 358)" fill="#007f85"/><rect width="12" height="291" rx="6" transform="translate(1125 358)" fill="#007f85"/><rect width="12" height="291" rx="6" transform="translate(1199 358)" fill="#007f85"/><rect width="13" height="291" rx="6.5" transform="translate(1289 358)" fill="#007f85"/><rect width="12" height="292" rx="6" transform="translate(1362 651) rotate(180)" fill="#007f85"/><rect width="12" height="355" rx="6" transform="translate(1259 327)" fill="#007f85"/><rect width="13" height="453" rx="6.5" transform="translate(1320 279)" fill="#007f85"/><rect width="12" height="208" rx="6" transform="translate(1484 609) rotate(180)" fill="#007f85"/><rect width="13" height="132" rx="6.5" transform="translate(1553 571) rotate(180)" fill="#007f85"/><rect width="13" height="153" rx="6.5" transform="translate(1422 582) rotate(180)" fill="#007f85"/><rect width="13" height="292" rx="6.5" transform="translate(1527 651) rotate(180)" fill="#007f85"/><rect width="12" height="292" rx="6" transform="translate(1452 651) rotate(180)" fill="#007f85"/><rect width="13" height="355" rx="6.5" transform="translate(1393 682) rotate(180)" fill="#007f85"/><rect width="13" height="208" rx="6.5" transform="translate(1606 609) rotate(180)" fill="#007f85"/><rect width="13" height="292" rx="6.5" transform="translate(1579 651) rotate(180)" fill="#007f85"/></g></svg>