<svg xmlns="http://www.w3.org/2000/svg" width="28.159" height="22.87" viewBox="0 0 28.159 22.87"><path d="M25.265,9.08c.018.25.018.5.018.75,0,7.629-5.807,16.42-16.42,16.42A16.309,16.309,0,0,1,0,23.66a11.939,11.939,0,0,0,1.394.071,11.558,11.558,0,0,0,7.165-2.466,5.781,5.781,0,0,1-5.4-4,7.278,7.278,0,0,0,1.09.089,6.1,6.1,0,0,0,1.519-.2,5.772,5.772,0,0,1-4.628-5.664v-.071a5.812,5.812,0,0,0,2.609.733A5.78,5.78,0,0,1,1.965,4.435a16.4,16.4,0,0,0,11.9,6.039,6.515,6.515,0,0,1-.143-1.322A5.777,5.777,0,0,1,23.71,5.2,11.362,11.362,0,0,0,27.373,3.81a5.756,5.756,0,0,1-2.537,3.18A11.57,11.57,0,0,0,28.159,6.1,12.406,12.406,0,0,1,25.265,9.08Z" transform="translate(0 -3.381)" fill="#d9d9d9"/></svg>