<svg xmlns="http://www.w3.org/2000/svg" width="30.037" height="21.119" viewBox="0 0 30.037 21.119"><path d="M30.459,7.8A3.774,3.774,0,0,0,27.8,5.132C25.461,4.5,16.068,4.5,16.068,4.5s-9.393,0-11.735.632A3.774,3.774,0,0,0,1.678,7.8a39.592,39.592,0,0,0-.628,7.277,39.592,39.592,0,0,0,.628,7.277,3.718,3.718,0,0,0,2.656,2.63c2.342.632,11.735.632,11.735.632s9.393,0,11.735-.632a3.718,3.718,0,0,0,2.656-2.63,39.592,39.592,0,0,0,.628-7.277A39.592,39.592,0,0,0,30.459,7.8ZM13,19.547V10.615l7.85,4.466L13,19.547Z" transform="translate(-1.05 -4.5)" fill="#d9d9d9"/></svg>